<?xml version="1.0" standalone="no"?><!DOCTYPE svg PUBLIC "-//W3C//DTD SVG 1.1//EN" "http://www.w3.org/Graphics/SVG/1.1/DTD/svg11.dtd"><svg t="1527395576838" class="icon" style="" viewBox="0 0 1024 1024" version="1.1" xmlns="http://www.w3.org/2000/svg" p-id="1635" xmlns:xlink="http://www.w3.org/1999/xlink" width="64" height="64"><defs><style type="text/css"></style></defs><path d="M735.610824 507.870959 522.268878 507.870959 522.268878 294.529013c0-16.977673-13.766538-30.735002-30.735002-30.735002s-30.735002 13.756305-30.735002 30.735002l0 213.342969L247.456928 507.871983c-16.968463 0-30.735002 13.756305-30.735002 30.735002 0 16.978696 13.766538 30.735002 30.735002 30.735002L460.798874 569.341986l0 213.341946c0 16.978696 13.766538 30.735002 30.735002 30.735002s30.735002-13.756305 30.735002-30.735002L522.268878 569.340963l213.341946 0c16.968463 0 30.735002-13.756305 30.735002-30.735002C766.345826 521.628288 752.579287 507.870959 735.610824 507.870959z" p-id="1636" fill="#bfbfbf"></path></svg>